<?xml version="1.0" encoding="UTF-8"?><svg id="a" xmlns="http://www.w3.org/2000/svg" viewBox="0 0 400 478.95"><path d="M224.8,79.25c-8.82-1.24-17.81-1.86-26.97-1.86-3.41,0-6.81.09-10.18.27h-.02C83.11,83.03,0,170.61,0,277.88c0,76.47,42.25,142.94,104.36,176.74-1.6-1.88-3.14-3.81-4.63-5.82-14.58-16.45-23.44-38.09-23.44-61.8,0-1.6.04-3.19.14-4.76,0-.04-.02-.07,0-.11-.05-1.03-.09-2.06-.11-3.11-.02-.89-.04-1.77-.04-2.68,0-.76,0-1.53.04-2.27,1.08-62.15,47.13-112.17,103.76-112.17,1.19,0,2.38.02,3.57.07,1.17-.05,2.34-.07,3.53-.07.8,0,1.6.02,2.41.04h.09c3.41.09,6.76.35,10.08.82h.09c.82.02,1.61.04,2.41.04,51.44,0,93.15-41.71,93.15-93.15,0-43.67-30.06-80.32-70.62-90.4ZM202.27,201.59c-15.68,0-28.39-12.7-28.39-28.39s12.7-28.39,28.39-28.39,28.39,12.7,28.39,28.39-12.7,28.39-28.39,28.39Z" style="fill:#ff904f;"/><path d="M175.2,477.09c8.82,1.24,17.81,1.86,26.97,1.86,3.41,0,6.81-.09,10.18-.27h.02c104.52-5.38,187.63-92.96,187.63-200.23,0-76.47-42.25-142.94-104.36-176.74,1.6,1.88,3.14,3.81,4.63,5.82,14.58,16.45,23.44,38.09,23.44,61.8,0,1.6-.04,3.19-.14,4.76,0,.04.02.07,0,.11.05,1.03.09,2.06.11,3.11.02.89.04,1.77.04,2.68,0,.76,0,1.53-.04,2.27-1.08,62.15-47.13,112.17-103.76,112.17-1.19,0-2.38-.02-3.57-.07-1.17.05-2.34.07-3.53.07-.8,0-1.6-.02-2.41-.04h-.09c-3.41-.09-6.76-.35-10.08-.82h-.09c-.82-.02-1.61-.04-2.41-.04-51.44,0-93.15,41.71-93.15,93.15,0,43.67,30.06,80.32,70.62,90.4ZM197.73,354.75c15.68,0,28.39,12.7,28.39,28.39s-12.7,28.39-28.39,28.39-28.39-12.7-28.39-28.39,12.7-28.39,28.39-28.39Z" style="fill:#8b5cf6;"/><path d="M301.63,1.11c-1.61,7.31-6.1,22.59-19.52,35.47-14.34,13.79-31.76,17.97-45.1,18.84,2.45-2.79,3-5.89,9.62-13.52,0,0,1.53-1.77,14.19-14.19,0,0,3.69-4.52,3.69-6.53,0-.23-.04-.43-.14-.57-1.05-1.54-8.06,1.35-12.42,3.55-5.96,3.02-9.87,6.41-10.65,7.1-9.83,8.66-19.29,17.02-23.95,22.98-.07-6.92.83-25.57,14.07-38.7,10.54-10.45,23.83-12.33,38.61-14.43,13.02-1.85,24.04-1.06,31.6,0Z" style="fill:#009245;"/><path d="M194.92,56.72c-1.21-2.02-6.55-3.39-13.95-9.49-10.43-8.61-9.37-13.75-19.52-21.29-6.64-4.93-15.84-9.23-17.74-7.1-1.77,2,2.89,9.55,7.1,14.19,2.29,2.54,2.45,1.99,10.65,8.87,8.25,6.92,9.62,8.73,10.65,10.65,1.35,2.5,1.63,4.24,1.93,5.61-14.46-.82-33.5-5.02-49.15-19.11-14.5-13.04-19.36-28.53-21.1-35.95,8.18-1.06,20.09-1.86,34.17,0,15.99,2.13,30.34,4.03,41.75,14.62,14.18,13.17,15.26,31.81,15.21,39Z" style="fill:#009245;"/><line x1="103.8" y1="3.1" x2="103.8" y2="3.08" style="fill:none; stroke:#000; stroke-miterlimit:10;"/></svg>
