<?xml version="1.0" encoding="UTF-8"?><svg id="a" xmlns="http://www.w3.org/2000/svg" viewBox="0 0 858.08 255.91"><path d="M294.69,105.91h6.6l6-27.6,29.6-4-6.8,31.6h12l-1.6,8h-12l-12.8,60c-.27,1.2-.47,2.3-.6,3.3s-.2,2.04-.2,3.1c0,2.67.63,4.57,1.9,5.7,1.27,1.13,3.37,1.7,6.3,1.7,3.73,0,7.27-1.63,10.6-4.9,3.33-3.27,5.8-7.5,7.4-12.7h8.4c-4.27,12.13-10,21.33-17.2,27.6s-15.47,9.4-24.8,9.4c-6.67,0-11.9-2.1-15.7-6.3-3.8-4.2-5.7-10.1-5.7-17.7,0-1.73.13-3.7.4-5.9s.67-4.57,1.2-7.1l12-56.2h-6.6l1.6-8h0Z"/><path d="M406.09,115.11v1.4l2.2-10.6h28.8l-14.4,68c-.27,1.2-.47,2.3-.6,3.3s-.2,2.04-.2,3.1c0,2.93.67,5.1,2,6.5s3.4,2.1,6.2,2.1c3.47,0,6.6-1.63,9.4-4.9,2.8-3.27,5.07-7.9,6.8-13.9h8.4c-4.27,12.27-9.8,21.5-16.6,27.7s-14.67,9.3-23.6,9.3c-5.73,0-10.3-1.6-13.7-4.8-3.4-3.2-5.37-7.73-5.9-13.6-4.13,6.13-8.7,10.73-13.7,13.8s-10.37,4.6-16.1,4.6c-8.27,0-14.77-2.8-19.5-8.4-4.73-5.6-7.1-13.53-7.1-23.8,0-7.47,1.13-15.27,3.4-23.4,2.27-8.13,5.4-15.53,9.4-22.2,4.93-7.87,10.67-13.9,17.2-18.1s13.67-6.3,21.4-6.3c5.2,0,9.2.9,12,2.7,2.8,1.8,4.2,4.3,4.2,7.5h0ZM404.29,124.91c0-2-.73-3.77-2.2-5.3-1.47-1.53-3.47-2.3-6-2.3-7.33,0-13.83,6.13-19.5,18.4-5.67,12.27-8.5,24.4-8.5,36.4,0,5.2.73,9.1,2.2,11.7,1.47,2.6,4.07,3.9,7.8,3.9,3.47,0,6.83-1.67,10.1-5,3.27-3.33,5.43-7.53,6.5-12.6l9.6-45.2h0Z"/><path d="M494.89,184.51c0-2.4.3-5.4.9-9s1.83-9.33,3.7-17.2c1.87-7.6,3.07-13.07,3.6-16.4.53-3.33.8-6.13.8-8.4,0-3.33-.6-5.87-1.8-7.6-1.2-1.73-3-2.6-5.4-2.6-3.2,0-6.17,1.63-8.9,4.9-2.73,3.27-4.97,7.77-6.7,13.5l-13.6,64.2h-28.8l21.2-100h28.8l-2.2,10.4c3.33-3.73,6.93-6.53,10.8-8.4s8.07-2.8,12.6-2.8c7.07,0,12.53,1.93,16.4,5.8s5.8,9.47,5.8,16.8c0,3.07-.37,6.7-1.1,10.9s-2.17,10.63-4.3,19.3c-1.73,6.8-2.87,11.6-3.4,14.4-.53,2.8-.8,5.13-.8,7,0,2.8.67,4.9,2,6.3,1.33,1.4,3.33,2.1,6,2.1,3.33,0,6.2-1.13,8.6-3.4,2.4-2.27,5.13-7,8.2-14.2h8.4c-4.27,12.4-9.43,21.67-15.5,27.8s-13.3,9.2-21.7,9.2c-7.47,0-13.27-2.03-17.4-6.1s-6.2-9.57-6.2-16.5h0Z"/><path d="M613.49,115.11v1.2l2.2-10.4h28.8l-19.8,92.8c6.67-2.4,11.9-5.77,15.7-10.1s6.97-10.5,9.5-18.5h8.4c-3.07,10.13-7.43,18.27-13.1,24.4-5.67,6.13-13.1,10.47-22.3,13l-3,14.4c-2.4,11.2-6.6,19.67-12.6,25.4s-13.8,8.6-23.4,8.6c-6.8,0-12.23-1.73-16.3-5.2s-6.1-8.2-6.1-14.2c0-6.54,2.7-12.3,8.1-17.3s13.57-9.17,24.5-12.5l2.4-10.6c-3.47,3.6-7.2,6.33-11.2,8.2s-8.27,2.8-12.8,2.8c-8.27,0-14.77-2.8-19.5-8.4-4.73-5.6-7.1-13.53-7.1-23.8,0-7.47,1.13-15.27,3.4-23.4,2.27-8.13,5.4-15.53,9.4-22.2,4.93-7.87,10.67-13.9,17.2-18.1s13.67-6.3,21.4-6.3c5.2,0,9.2.9,12,2.7,2.8,1.8,4.2,4.3,4.2,7.5h0ZM592.09,216.71c-6.67,2.53-11.6,5.17-14.8,7.9s-4.8,5.77-4.8,9.1c0,1.73.67,3.27,2,4.6s2.93,2,4.8,2c2.27,0,4.47-1.6,6.6-4.8s3.8-7.54,5-13l1.2-5.8ZM611.69,124.71c-.13-2.13-.93-3.9-2.4-5.3-1.47-1.4-3.4-2.1-5.8-2.1-7.33,0-13.83,6.13-19.5,18.4-5.67,12.27-8.5,24.4-8.5,36.4,0,5.2.73,9.1,2.2,11.7,1.47,2.6,4.07,3.9,7.8,3.9,3.2,0,6.37-1.46,9.5-4.4,3.13-2.93,5.3-6.67,6.5-11.2l10.2-47.4h0Z"/><path d="M648.28,183.11c0-1.73.13-3.7.4-5.9s.67-4.57,1.2-7.1l13.6-64.2h28.8l-14.4,68c-.27,1.2-.47,2.3-.6,3.3s-.2,2.04-.2,3.1c0,2.67.63,4.57,1.9,5.7,1.27,1.13,3.37,1.7,6.3,1.7,3.73,0,7.27-1.63,10.6-4.9,3.33-3.27,5.8-7.5,7.4-12.7h8.4c-4.27,12.13-10,21.33-17.2,27.6s-15.47,9.4-24.8,9.4c-6.67,0-11.9-2.1-15.7-6.3s-5.7-10.1-5.7-17.7h0ZM699.28,79.31c0,4.4-1.57,8.13-4.7,11.2s-6.9,4.6-11.3,4.6-8.13-1.53-11.2-4.6-4.6-6.8-4.6-11.2,1.53-8.17,4.6-11.3c3.07-3.13,6.8-4.7,11.2-4.7s8.17,1.57,11.3,4.7,4.7,6.9,4.7,11.3Z"/><path d="M776.68,123.31c0,11.07-4.54,20.7-13.6,28.9-9.07,8.2-19.87,12.63-32.4,13.3-.13,2.27-.23,3.97-.3,5.1s-.1,2.1-.1,2.9c0,6.13,1.03,10.47,3.1,13,2.07,2.53,5.83,3.8,11.3,3.8,6.27,0,12.03-1.43,17.3-4.3,5.27-2.87,11.3-8.17,18.1-15.9h6.8c-7.73,12.53-16.13,21.83-25.2,27.9-9.07,6.07-19,9.1-29.8,9.1s-18.03-2.67-23.3-8c-5.27-5.33-7.9-13.27-7.9-23.8,0-7.6,1.2-15.67,3.6-24.2,2.4-8.53,5.6-16.13,9.6-22.8,4.93-8,10.83-14.03,17.7-18.1s14.57-6.1,23.1-6.1c7.33,0,12.83,1.57,16.5,4.7s5.5,7.97,5.5,14.5h0ZM756.28,114.71c-4.53,0-9.1,4.03-13.7,12.1-4.6,8.07-8.03,17.77-10.3,29.1,7.73-.53,14.5-4.1,20.3-10.7,5.8-6.6,8.7-14.03,8.7-22.3,0-2.8-.4-4.87-1.2-6.2-.8-1.33-2.07-2-3.8-2Z"/><path d="M801.48,205.91h-28.8l21.2-100h28.8l-2.6,12.4c5.87-4.93,10.5-8.23,13.9-9.9s6.83-2.5,10.3-2.5c4.13,0,7.47,1.43,10,4.3s3.8,6.43,3.8,10.7-1.33,7.6-4,10.4c-2.67,2.8-6.13,4.2-10.4,4.2-2.27,0-4.04-.53-5.3-1.6-1.27-1.07-2.17-3.27-2.7-6.6-.4-2.13-.87-3.5-1.4-4.1s-1.27-.9-2.2-.9c-2.27,0-4.4.47-6.4,1.4s-4.73,3-8.2,6.2l-16,76h0Z"/><path d="M112.4,39.63c-4.41-.62-8.9-.93-13.49-.93-1.71,0-3.4.04-5.09.13h-.01C41.56,41.52,0,85.31,0,138.94c0,38.24,21.13,71.47,52.18,88.37-.8-.94-1.57-1.9-2.31-2.91-7.29-8.23-11.72-19.04-11.72-30.9,0-.8.02-1.6.07-2.38v-.05c-.03-.51-.04-1.03-.06-1.55,0-.45-.02-.88-.02-1.34,0-.38,0-.76.02-1.13.54-31.07,23.56-56.09,51.88-56.09.6,0,1.19,0,1.79.04.58-.02,1.17-.04,1.76-.04.4,0,.8,0,1.21.02h.04c1.71.04,3.38.18,5.04.41h.04c.41,0,.81.02,1.21.02,25.72,0,46.57-20.85,46.57-46.57,0-21.83-15.03-40.16-35.31-45.2h.01ZM101.14,100.8c-7.84,0-14.19-6.35-14.19-14.19s6.35-14.19,14.19-14.19,14.19,6.35,14.19,14.19-6.35,14.19-14.19,14.19Z" style="fill:#ff904f;"/><path d="M87.6,238.55c4.41.62,8.9.93,13.49.93,1.71,0,3.4-.04,5.09-.13h.01c52.26-2.69,93.81-46.48,93.81-100.11,0-38.24-21.12-71.47-52.18-88.37.8.94,1.57,1.9,2.32,2.91,7.29,8.23,11.72,19.05,11.72,30.9,0,.8-.02,1.6-.07,2.38v.06c.02.51.04,1.03.05,1.56,0,.44.02.89.02,1.34,0,.38,0,.76-.02,1.14-.54,31.08-23.57,56.08-51.88,56.08-.6,0-1.19,0-1.79-.04-.58.02-1.17.04-1.76.04-.4,0-.8,0-1.21-.02h-.04c-1.71-.04-3.38-.18-5.04-.41h-.04c-.41,0-.81-.02-1.21-.02-25.72,0-46.58,20.85-46.58,46.57,0,21.84,15.03,40.16,35.31,45.2h0ZM98.86,177.38c7.84,0,14.19,6.35,14.19,14.2s-6.35,14.2-14.19,14.2-14.19-6.35-14.19-14.2,6.35-14.2,14.19-14.2Z" style="fill:#ff721e;"/><path d="M150.82.56c-.8,3.66-3.05,11.3-9.76,17.74-7.17,6.9-15.88,8.99-22.55,9.42,1.22-1.4,1.5-2.94,4.81-6.76,0,0,.76-.89,7.1-7.09,0,0,1.85-2.26,1.85-3.27,0-.11-.02-.22-.07-.28-.52-.77-4.03.68-6.21,1.77-2.98,1.51-4.93,3.2-5.32,3.55-4.92,4.33-9.64,8.51-11.97,11.49-.04-3.46.42-12.78,7.04-19.35,5.27-5.22,11.92-6.16,19.31-7.22,6.51-.93,12.02-.53,15.8,0h-.03Z" style="fill:#009245;"/><path d="M97.46,28.36c-.61-1.01-3.28-1.69-6.97-4.74-5.21-4.31-4.68-6.88-9.76-10.65-3.32-2.47-7.92-4.61-8.87-3.55-.89,1,1.44,4.78,3.55,7.1,1.14,1.27,1.22,1,5.32,4.43,4.12,3.46,4.81,4.36,5.32,5.33.68,1.25.82,2.12.96,2.81-7.23-.41-16.75-2.51-24.58-9.56-7.25-6.52-9.68-14.27-10.55-17.98,4.09-.53,10.04-.93,17.08,0,8,1.07,15.17,2.02,20.88,7.31,7.09,6.59,7.63,15.9,7.61,19.5h.01Z" style="fill:#009245;"/></svg>